# xmcd
#
# Track frame offsets: 
#        150
#        16365
#        31240
#        45442
#        59472
#        75660
#        89630
#        101880
#        118582
#        131910
#        144040
#        158215
#        171567
#        188817
#        205067
#        217010
#        232550
#        249657
#
# Disc length: 3524 seconds
#
# Revision: 10
# Processed by: cddbd v1.5.2PL0 Copyright (c) Steve Scherf et al.
# Submitted via: ExactAudioCopy v0.99pb5
#
DISCID=f70dc212
DTITLE=Tom Astor - Flieg, junger Adler
DYEAR=1993
DGENRE=Country
TTITLE0=Tom Astor - Junger Adler '93 (Ein Lied für (m)einen Sohn)
TTITLE1=Tom Astor - Renovier deine Seele
TTITLE2=Tom Astor - Take It Easy - Nimm's leicht
TTITLE3=Tom Astor and The Jordanaires - Ich bin kein Dichter - kein Poet
TTITLE4=Tom Astor - Doch ich habe dich geliebt (Always On My Mind)
TTITLE5=Tom Astor - Du bist da (wenn's drum geht)
TTITLE6=Tom Astor and Claudia Jung - Wer Liebe sucht (Stand By Your Man)
TTITLE7=Tom Astor - Freundschaft
TTITLE8=Tom Astor and Wolfgang Petry - Take Me Home Country Roads
TTITLE9=Tom Astor - Hallo, guten Morgen Deutschland
TTITLE10=Tom Astor - International Airport (Frankfurt am Main)
TTITLE11=Tom Astor and The Bellamy Brothers - Redneck Riviera
TTITLE12=Tom Astor - Lucille
TTITLE13=Tom Astor - Und ich seh' die Trucks vorüberzieh'n
TTITLE14=Tom Astor - Freunde
TTITLE15=Tom Astor and The Jordanaires - Bist du einsam heut' Nacht (Are
TTITLE15=You Lonesome Tonight)
TTITLE16=Tom Astor - Sturm und Drang
TTITLE17=Tom Astor - Geistertruck
EXTD=YEAR: 1993
EXTT0=
EXTT1=
EXTT2=
EXTT3=
EXTT4=
EXTT5=
EXTT6=
EXTT7=
EXTT8=
EXTT9=
EXTT10=
EXTT11=
EXTT12=
EXTT13=
EXTT14=
EXTT15=
EXTT16=
EXTT17=
PLAYORDER=
